<svg xmlns="http://www.w3.org/2000/svg" viewBox="0 0 512 512"><path d="M370.068 63.494C329.123 22.549 274.686 0 216.781 0S104.438 22.549 63.494 63.494C22.549 104.438 0 158.876 0 216.78c0 57.905 22.549 112.343 63.494 153.287 40.944 40.944 95.383 63.494 153.287 63.494s112.342-22.55 153.287-63.494c40.944-40.944 63.494-95.382 63.494-153.287-.001-57.904-22.55-112.342-63.494-153.286zM216.78 392.196c-96.725 0-175.416-78.691-175.416-175.416S120.056 41.364 216.781 41.364s175.415 78.691 175.415 175.416-78.691 175.416-175.416 175.416z"/><path d="M505.943 476.693L369.981 340.732c-8.077-8.077-21.172-8.077-29.249 0-8.076 8.077-8.076 21.172 0 29.249l135.961 135.961A20.616 20.616 0 0 0 491.318 512a20.616 20.616 0 0 0 14.625-6.058c8.076-8.077 8.076-21.172 0-29.249z"/></svg>